<mxfile host="app.diagrams.net" modified="2020-07-30T02:16:39.714Z" agent="5.0 (Macintosh; Intel Mac OS X 10_15_4) AppleWebKit/537.36 (KHTML, like Gecko) Chrome/84.0.4147.89 Safari/537.36" etag="RZ871Ouhuag_JvLmE1yw" version="13.5.5" type="github">
  <diagram id="dPvSarUMEetczJG7Xma1" name="Page-1">
    <mxGraphModel dx="942" dy="534" grid="1" gridSize="10" guides="1" tooltips="1" connect="1" arrows="1" fold="1" page="1" pageScale="1" pageWidth="827" pageHeight="1169" math="0" shadow="0">
      <root>
        <mxCell id="0" />
        <mxCell id="1" parent="0" />
        <mxCell id="AO41h0RQMPCouk-QgjDl-3" style="rounded=0;orthogonalLoop=1;jettySize=auto;html=1;edgeStyle=orthogonalEdgeStyle;curved=1;" edge="1" parent="1" source="AO41h0RQMPCouk-QgjDl-1" target="AO41h0RQMPCouk-QgjDl-2">
          <mxGeometry relative="1" as="geometry">
            <mxPoint x="310" y="210" as="targetPoint" />
          </mxGeometry>
        </mxCell>
        <mxCell id="AO41h0RQMPCouk-QgjDl-5" value="1111&lt;br&gt;" style="edgeLabel;html=1;align=center;verticalAlign=middle;resizable=0;points=[];" vertex="1" connectable="0" parent="AO41h0RQMPCouk-QgjDl-3">
          <mxGeometry x="-0.1569" y="-18" relative="1" as="geometry">
            <mxPoint as="offset" />
          </mxGeometry>
        </mxCell>
        <mxCell id="AO41h0RQMPCouk-QgjDl-1" value="1111" style="rounded=0;whiteSpace=wrap;html=1;" vertex="1" parent="1">
          <mxGeometry x="170" y="100" width="120" height="60" as="geometry" />
        </mxCell>
        <mxCell id="AO41h0RQMPCouk-QgjDl-7" style="edgeStyle=orthogonalEdgeStyle;curved=1;rounded=0;orthogonalLoop=1;jettySize=auto;html=1;exitX=0.5;exitY=1;exitDx=0;exitDy=0;entryX=0.5;entryY=0;entryDx=0;entryDy=0;" edge="1" parent="1" source="AO41h0RQMPCouk-QgjDl-2" target="AO41h0RQMPCouk-QgjDl-6">
          <mxGeometry relative="1" as="geometry" />
        </mxCell>
        <mxCell id="AO41h0RQMPCouk-QgjDl-2" value="1111" style="rounded=1;whiteSpace=wrap;html=1;" vertex="1" parent="1">
          <mxGeometry x="354" y="210" width="120" height="60" as="geometry" />
        </mxCell>
        <mxCell id="AO41h0RQMPCouk-QgjDl-4" value="" style="rhombus;whiteSpace=wrap;html=1;" vertex="1" parent="1">
          <mxGeometry x="120" y="290" width="80" height="70" as="geometry" />
        </mxCell>
        <mxCell id="AO41h0RQMPCouk-QgjDl-6" value="44" style="rounded=1;whiteSpace=wrap;html=1;" vertex="1" parent="1">
          <mxGeometry x="540" y="320" width="120" height="60" as="geometry" />
        </mxCell>
      </root>
    </mxGraphModel>
  </diagram>
</mxfile>
